<svg xmlns="http://www.w3.org/2000/svg" xmlns:xlink="http://www.w3.org/1999/xlink" width="500" zoomAndPan="magnify" viewBox="0 0 375 112.499997" height="150" preserveAspectRatio="xMidYMid meet" version="1.0"><defs><g/><clipPath id="c1a98089f8"><path d="M 0.828125 0 L 374.167969 0 L 374.167969 112.003906 L 0.828125 112.003906 Z M 0.828125 0 " clip-rule="nonzero"/></clipPath><clipPath id="0851c6e544"><path d="M 3.648438 60.011719 L 168.664062 60.011719 L 168.664062 69 L 3.648438 69 Z M 3.648438 60.011719 " clip-rule="nonzero"/></clipPath><clipPath id="379d272ee5"><path d="M 3.648438 73 L 168.664062 73 L 168.664062 82 L 3.648438 82 Z M 3.648438 73 " clip-rule="nonzero"/></clipPath><clipPath id="d59aff6eed"><path d="M 3.648438 86 L 168.664062 86 L 168.664062 95 L 3.648438 95 Z M 3.648438 86 " clip-rule="nonzero"/></clipPath><clipPath id="2ed9eec8b6"><path d="M 3.648438 99 L 168.664062 99 L 168.664062 107.800781 L 3.648438 107.800781 Z M 3.648438 99 " clip-rule="nonzero"/></clipPath></defs><g clip-path="url(#c1a98089f8)"><path fill="#ffffff" d="M 0.828125 0 L 374.171875 0 L 374.171875 112.003906 L 0.828125 112.003906 Z M 0.828125 0 " fill-opacity="1" fill-rule="nonzero"/><path fill="#ffffff" d="M 0.828125 0 L 374.171875 0 L 374.171875 112.003906 L 0.828125 112.003906 Z M 0.828125 0 " fill-opacity="1" fill-rule="nonzero"/></g><g clip-path="url(#0851c6e544)"><path fill="#a6a6a6" d="M 168.40625 60.011719 L 168.40625 68.242188 L 3.820312 68.242188 L 3.820312 60.011719 Z M 168.40625 60.011719 " fill-opacity="1" fill-rule="nonzero"/></g><g clip-path="url(#379d272ee5)"><path fill="#737373" d="M 168.40625 73.1875 L 168.40625 81.417969 L 3.820312 81.417969 L 3.820312 73.1875 Z M 168.40625 73.1875 " fill-opacity="1" fill-rule="nonzero"/></g><g clip-path="url(#d59aff6eed)"><path fill="#545454" d="M 168.40625 86.34375 L 168.40625 94.574219 L 3.820312 94.574219 L 3.820312 86.34375 Z M 168.40625 86.34375 " fill-opacity="1" fill-rule="nonzero"/></g><g clip-path="url(#2ed9eec8b6)"><path fill="#404040" d="M 168.40625 99.519531 L 168.40625 107.746094 L 3.820312 107.746094 L 3.820312 99.519531 Z M 168.40625 99.519531 " fill-opacity="1" fill-rule="nonzero"/></g><g fill="#303030" fill-opacity="1"><g transform="translate(0.600897, 51.145468)"><g><path d="M 1.015625 -49.078125 C 1.015625 -50.023438 1.367188 -50.628906 2.078125 -50.890625 C 2.785156 -51.160156 3.679688 -51.296875 4.765625 -51.296875 C 6.046875 -51.296875 7.445312 -51.191406 8.96875 -50.984375 C 10.488281 -50.785156 11.894531 -50.6875 13.1875 -50.6875 C 14.601562 -50.6875 15.898438 -50.804688 17.078125 -51.046875 C 18.265625 -51.285156 19.398438 -51.40625 20.484375 -51.40625 C 21.628906 -51.40625 22.691406 -51.082031 23.671875 -50.4375 C 24.648438 -49.800781 25.515625 -48.5 26.265625 -46.53125 C 26.265625 -46.53125 26.753906 -45.023438 27.734375 -42.015625 C 28.710938 -39.015625 29.976562 -35.285156 31.53125 -30.828125 C 32.070312 -29.335938 32.613281 -29.335938 33.15625 -30.828125 C 34.78125 -35.285156 36.0625 -39.015625 37 -42.015625 C 37.945312 -45.023438 38.421875 -46.53125 38.421875 -46.53125 C 39.171875 -48.5 40.015625 -49.800781 40.953125 -50.4375 C 41.898438 -51.082031 42.914062 -51.40625 44 -51.40625 C 44.945312 -51.40625 45.925781 -51.285156 46.9375 -51.046875 C 47.957031 -50.804688 49.007812 -50.6875 50.09375 -50.6875 C 51.4375 -50.6875 52.851562 -50.785156 54.34375 -50.984375 C 55.832031 -51.191406 57.21875 -51.296875 58.5 -51.296875 C 59.644531 -51.296875 60.554688 -51.160156 61.234375 -50.890625 C 61.910156 -50.628906 62.25 -50.023438 62.25 -49.078125 C 62.25 -48.191406 62.078125 -47.507812 61.734375 -47.03125 C 61.398438 -46.5625 61 -46.054688 60.53125 -45.515625 C 60.0625 -44.984375 59.65625 -44.125 59.3125 -42.9375 C 58.976562 -41.757812 58.8125 -39.984375 58.8125 -37.609375 L 58.8125 -13.078125 C 58.8125 -10.710938 58.976562 -8.921875 59.3125 -7.703125 C 59.65625 -6.484375 60.0625 -5.585938 60.53125 -5.015625 C 61 -4.441406 61.398438 -3.96875 61.734375 -3.59375 C 62.078125 -3.226562 62.25 -2.671875 62.25 -1.921875 C 62.25 -0.910156 61.859375 -0.238281 61.078125 0.09375 C 60.304688 0.4375 59.347656 0.609375 58.203125 0.609375 C 56.984375 0.609375 55.679688 0.503906 54.296875 0.296875 C 52.910156 0.0976562 51.707031 0 50.6875 0 C 49.675781 0 48.476562 0.0976562 47.09375 0.296875 C 45.707031 0.503906 44.40625 0.609375 43.1875 0.609375 C 42.039062 0.609375 41.078125 0.4375 40.296875 0.09375 C 39.523438 -0.238281 39.140625 -0.910156 39.140625 -1.921875 C 39.140625 -2.671875 39.304688 -3.226562 39.640625 -3.59375 C 39.984375 -3.96875 40.390625 -4.441406 40.859375 -5.015625 C 41.328125 -5.585938 41.726562 -6.484375 42.0625 -7.703125 C 42.40625 -8.921875 42.578125 -10.710938 42.578125 -13.078125 C 42.578125 -14.296875 42.578125 -15.914062 42.578125 -17.9375 C 42.578125 -19.96875 42.5625 -22.148438 42.53125 -24.484375 C 42.5 -26.816406 42.484375 -29.128906 42.484375 -31.421875 C 42.484375 -33.722656 42.484375 -35.71875 42.484375 -37.40625 C 42.484375 -37.539062 42.378906 -37.675781 42.171875 -37.8125 C 41.972656 -37.945312 41.804688 -37.847656 41.671875 -37.515625 C 41.203125 -36.023438 40.507812 -33.945312 39.59375 -31.28125 C 38.675781 -28.613281 37.675781 -25.671875 36.59375 -22.453125 C 35.519531 -19.242188 34.40625 -15.984375 33.25 -12.671875 C 32.101562 -9.359375 31.054688 -6.316406 30.109375 -3.546875 C 29.640625 -2.054688 29.164062 -0.988281 28.6875 -0.34375 C 28.21875 0.289062 27.507812 0.609375 26.5625 0.609375 C 25.882812 0.609375 25.289062 0.238281 24.78125 -0.5 C 24.28125 -1.25 23.789062 -2.265625 23.3125 -3.546875 C 22.300781 -6.316406 21.253906 -9.34375 20.171875 -12.625 C 19.085938 -15.90625 18.003906 -19.164062 16.921875 -22.40625 C 15.847656 -25.65625 14.890625 -28.613281 14.046875 -31.28125 C 13.203125 -33.945312 12.507812 -36.023438 11.96875 -37.515625 C 11.894531 -37.847656 11.738281 -37.945312 11.5 -37.8125 C 11.269531 -37.675781 11.15625 -37.539062 11.15625 -37.40625 L 11.15625 -13.078125 C 11.15625 -10.710938 11.320312 -8.882812 11.65625 -7.59375 C 12 -6.3125 12.40625 -5.347656 12.875 -4.703125 C 13.351562 -4.066406 13.757812 -3.53125 14.09375 -3.09375 C 14.425781 -2.65625 14.59375 -2.0625 14.59375 -1.3125 C 14.59375 -0.570312 14.390625 -0.0664062 13.984375 0.203125 C 13.585938 0.472656 13.082031 0.609375 12.46875 0.609375 C 11.726562 0.609375 10.898438 0.503906 9.984375 0.296875 C 9.078125 0.0976562 8.285156 0 7.609375 0 C 6.929688 0 6.1875 0.0976562 5.375 0.296875 C 4.5625 0.503906 3.785156 0.609375 3.046875 0.609375 C 2.503906 0.609375 2.03125 0.472656 1.625 0.203125 C 1.21875 -0.0664062 1.015625 -0.570312 1.015625 -1.3125 C 1.015625 -2.0625 1.179688 -2.65625 1.515625 -3.09375 C 1.859375 -3.53125 2.265625 -4.066406 2.734375 -4.703125 C 3.210938 -5.347656 3.617188 -6.3125 3.953125 -7.59375 C 4.296875 -8.882812 4.46875 -10.710938 4.46875 -13.078125 L 4.46875 -37.609375 C 4.46875 -39.984375 4.296875 -41.757812 3.953125 -42.9375 C 3.617188 -44.125 3.210938 -44.984375 2.734375 -45.515625 C 2.265625 -46.054688 1.859375 -46.5625 1.515625 -47.03125 C 1.179688 -47.507812 1.015625 -48.191406 1.015625 -49.078125 Z M 1.015625 -49.078125 "/></g></g></g><g fill="#303030" fill-opacity="1"><g transform="translate(63.862549, 51.145468)"><g><path d="M 24.4375 0.609375 C 20.851562 0.609375 17.335938 -0.0976562 13.890625 -1.515625 C 10.441406 -2.941406 7.601562 -5.175781 5.375 -8.21875 C 3.144531 -11.257812 2.03125 -15.242188 2.03125 -20.171875 C 2.03125 -24.367188 2.941406 -28.035156 4.765625 -31.171875 C 6.585938 -34.316406 9.117188 -36.769531 12.359375 -38.53125 C 15.609375 -40.289062 19.363281 -41.171875 23.625 -41.171875 C 27.8125 -41.171875 31.222656 -40.660156 33.859375 -39.640625 C 36.492188 -38.628906 38.535156 -37.328125 39.984375 -35.734375 C 41.441406 -34.148438 42.441406 -32.53125 42.984375 -30.875 C 43.523438 -29.21875 43.796875 -27.78125 43.796875 -26.5625 C 43.796875 -23.1875 42.75 -20.429688 40.65625 -18.296875 C 38.5625 -16.171875 35.890625 -14.617188 32.640625 -13.640625 C 29.398438 -12.660156 26.09375 -12.171875 22.71875 -12.171875 C 21.769531 -12.171875 21.070312 -11.832031 20.625 -11.15625 C 20.1875 -10.476562 20.050781 -9.695312 20.21875 -8.8125 C 20.394531 -7.9375 20.9375 -7.160156 21.84375 -6.484375 C 22.757812 -5.804688 24.0625 -5.46875 25.75 -5.46875 C 28.1875 -5.46875 30.113281 -5.90625 31.53125 -6.78125 C 32.945312 -7.664062 34.078125 -8.679688 34.921875 -9.828125 C 35.773438 -10.984375 36.585938 -12 37.359375 -12.875 C 38.140625 -13.75 39.171875 -14.1875 40.453125 -14.1875 C 41.597656 -14.1875 42.457031 -13.832031 43.03125 -13.125 C 43.613281 -12.414062 43.90625 -11.625 43.90625 -10.75 C 43.90625 -8.445312 43.007812 -6.453125 41.21875 -4.765625 C 39.425781 -3.078125 37.039062 -1.757812 34.0625 -0.8125 C 31.09375 0.132812 27.882812 0.609375 24.4375 0.609375 Z M 23.625 -36 C 22.207031 -36 21.070312 -35.148438 20.21875 -33.453125 C 19.375 -31.765625 18.953125 -29.503906 18.953125 -26.671875 C 18.953125 -23.828125 19.375 -21.5625 20.21875 -19.875 C 21.070312 -18.1875 22.207031 -17.34375 23.625 -17.34375 C 25.039062 -17.34375 26.171875 -18.1875 27.015625 -19.875 C 27.859375 -21.5625 28.28125 -23.828125 28.28125 -26.671875 C 28.28125 -29.503906 27.859375 -31.765625 27.015625 -33.453125 C 26.171875 -35.148438 25.039062 -36 23.625 -36 Z M 23.625 -36 "/></g></g></g><g fill="#303030" fill-opacity="1"><g transform="translate(109.788074, 51.145468)"><g><path d="M 1.015625 -1.921875 C 1.015625 -2.671875 1.179688 -3.226562 1.515625 -3.59375 C 1.859375 -3.96875 2.265625 -4.441406 2.734375 -5.015625 C 3.210938 -5.585938 3.617188 -6.484375 3.953125 -7.703125 C 4.296875 -8.921875 4.46875 -10.710938 4.46875 -13.078125 C 4.46875 -16.191406 4.484375 -18.441406 4.515625 -19.828125 C 4.546875 -21.210938 4.5625 -22.222656 4.5625 -22.859375 C 4.5625 -23.503906 4.5625 -24.234375 4.5625 -25.046875 C 4.5625 -26.867188 4.273438 -28.132812 3.703125 -28.84375 C 3.128906 -29.550781 2.550781 -30.109375 1.96875 -30.515625 C 1.394531 -30.921875 1.109375 -31.5625 1.109375 -32.4375 C 1.109375 -33.457031 1.445312 -34.148438 2.125 -34.515625 C 2.800781 -34.890625 3.765625 -35.210938 5.015625 -35.484375 C 6.265625 -35.753906 7.769531 -36.195312 9.53125 -36.8125 C 11.695312 -37.613281 13.179688 -38.335938 13.984375 -38.984375 C 14.796875 -39.628906 15.40625 -40.15625 15.8125 -40.5625 C 16.21875 -40.96875 16.863281 -41.171875 17.75 -41.171875 C 18.957031 -41.171875 19.765625 -40.628906 20.171875 -39.546875 C 20.578125 -38.460938 20.78125 -37.175781 20.78125 -35.6875 L 20.78125 -35.28125 C 20.78125 -33.59375 20.8125 -32.765625 20.875 -32.796875 C 20.945312 -32.828125 21.425781 -33.585938 22.3125 -35.078125 C 23.457031 -37.035156 25.0625 -38.539062 27.125 -39.59375 C 29.1875 -40.644531 31.160156 -41.171875 33.046875 -41.171875 C 36.765625 -41.171875 39.164062 -40.375 40.25 -38.78125 C 41.332031 -37.195312 41.367188 -34.882812 40.359375 -31.84375 C 39.546875 -29.40625 38.816406 -27.726562 38.171875 -26.8125 C 37.523438 -25.90625 36.898438 -25.453125 36.296875 -25.453125 C 35.617188 -25.453125 34.875 -25.851562 34.0625 -26.65625 C 33.25 -27.46875 32.351562 -28.265625 31.375 -29.046875 C 30.394531 -29.828125 29.195312 -30.21875 27.78125 -30.21875 C 26.96875 -30.21875 26.003906 -29.945312 24.890625 -29.40625 C 23.773438 -28.863281 22.8125 -27.878906 22 -26.453125 C 21.1875 -25.035156 20.78125 -23.046875 20.78125 -20.484375 L 20.78125 -13.078125 C 20.78125 -10.710938 20.945312 -8.921875 21.28125 -7.703125 C 21.625 -6.484375 22.03125 -5.585938 22.5 -5.015625 C 22.976562 -4.441406 23.382812 -3.96875 23.71875 -3.59375 C 24.0625 -3.226562 24.234375 -2.671875 24.234375 -1.921875 C 24.234375 -0.910156 23.84375 -0.238281 23.0625 0.09375 C 22.289062 0.4375 21.328125 0.609375 20.171875 0.609375 C 18.890625 0.609375 17.554688 0.503906 16.171875 0.296875 C 14.785156 0.0976562 13.585938 0 12.578125 0 C 11.554688 0 10.351562 0.0976562 8.96875 0.296875 C 7.582031 0.503906 6.28125 0.609375 5.0625 0.609375 C 3.914062 0.609375 2.953125 0.4375 2.171875 0.09375 C 1.398438 -0.238281 1.015625 -0.910156 1.015625 -1.921875 Z M 1.015625 -1.921875 "/></g></g></g><g fill="#303030" fill-opacity="1"><g transform="translate(152.368022, 51.145468)"><g><path d="M 24.03125 0.609375 C 17.269531 0.609375 11.910156 -1.226562 7.953125 -4.90625 C 4.003906 -8.59375 2.03125 -13.71875 2.03125 -20.28125 C 2.03125 -26.90625 4.003906 -32.039062 7.953125 -35.6875 C 11.910156 -39.34375 17.269531 -41.171875 24.03125 -41.171875 C 30.789062 -41.171875 36.144531 -39.34375 40.09375 -35.6875 C 44.050781 -32.039062 46.03125 -26.90625 46.03125 -20.28125 C 46.03125 -13.71875 44.050781 -8.59375 40.09375 -4.90625 C 36.144531 -1.226562 30.789062 0.609375 24.03125 0.609375 Z M 18.75 -20.28125 C 18.75 -17.507812 18.898438 -14.957031 19.203125 -12.625 C 19.515625 -10.289062 20.054688 -8.445312 20.828125 -7.09375 C 21.609375 -5.738281 22.675781 -5.0625 24.03125 -5.0625 C 25.445312 -5.0625 26.539062 -5.738281 27.3125 -7.09375 C 28.09375 -8.445312 28.617188 -10.289062 28.890625 -12.625 C 29.160156 -14.957031 29.296875 -17.507812 29.296875 -20.28125 C 29.296875 -23.113281 29.160156 -25.679688 28.890625 -27.984375 C 28.617188 -30.285156 28.09375 -32.109375 27.3125 -33.453125 C 26.539062 -34.804688 25.445312 -35.484375 24.03125 -35.484375 C 22.675781 -35.484375 21.609375 -34.804688 20.828125 -33.453125 C 20.054688 -32.109375 19.515625 -30.285156 19.203125 -27.984375 C 18.898438 -25.679688 18.75 -23.113281 18.75 -20.28125 Z M 18.75 -20.28125 "/></g></g></g><g fill="#303030" fill-opacity="1"><g transform="translate(161.867631, 109.651666)"><g><path d="M 1.03125 -55.265625 C 1.03125 -56.410156 1.46875 -57.175781 2.34375 -57.5625 C 3.226562 -57.945312 4.320312 -58.140625 5.625 -58.140625 C 7.007812 -58.140625 8.484375 -58.019531 10.046875 -57.78125 C 11.617188 -57.550781 12.976562 -57.4375 14.125 -57.4375 C 15.28125 -57.4375 16.640625 -57.550781 18.203125 -57.78125 C 19.773438 -58.019531 21.289062 -58.140625 22.75 -58.140625 C 24.050781 -58.140625 25.140625 -57.945312 26.015625 -57.5625 C 26.898438 -57.175781 27.34375 -56.410156 27.34375 -55.265625 C 27.34375 -54.421875 27.148438 -53.785156 26.765625 -53.359375 C 26.378906 -52.941406 25.921875 -52.40625 25.390625 -51.75 C 24.859375 -51.101562 24.398438 -50.085938 24.015625 -48.703125 C 23.628906 -47.328125 23.4375 -45.300781 23.4375 -42.625 L 23.4375 -8.046875 C 23.4375 -7.046875 23.742188 -6.375 24.359375 -6.03125 C 24.972656 -5.6875 25.660156 -5.515625 26.421875 -5.515625 C 27.191406 -5.515625 27.84375 -5.515625 28.375 -5.515625 C 30.0625 -5.515625 31.613281 -6.125 33.03125 -7.34375 C 34.445312 -8.570312 35.75 -10.085938 36.9375 -11.890625 C 38.125 -13.691406 39.234375 -15.488281 40.265625 -17.28125 C 41.296875 -19.082031 42.328125 -20.597656 43.359375 -21.828125 C 44.398438 -23.054688 45.457031 -23.671875 46.53125 -23.671875 C 48.363281 -23.671875 49.1875 -22.65625 49 -20.625 C 48.8125 -18.59375 47.988281 -14.972656 46.53125 -9.765625 C 45.988281 -7.691406 45.679688 -5.867188 45.609375 -4.296875 C 45.535156 -2.734375 45.269531 -1.507812 44.8125 -0.625 C 44.351562 0.25 43.28125 0.6875 41.59375 0.6875 C 35.84375 0.6875 30.726562 0.570312 26.25 0.34375 C 21.769531 0.113281 17.691406 0 14.015625 0 C 12.179688 0 10.457031 0.113281 8.84375 0.34375 C 7.238281 0.570312 5.820312 0.6875 4.59375 0.6875 C 3.519531 0.6875 2.65625 0.492188 2 0.109375 C 1.351562 -0.265625 1.03125 -1.03125 1.03125 -2.1875 C 1.03125 -3.03125 1.222656 -3.660156 1.609375 -4.078125 C 1.992188 -4.492188 2.453125 -5.023438 2.984375 -5.671875 C 3.523438 -6.328125 3.984375 -7.34375 4.359375 -8.71875 C 4.742188 -10.101562 4.9375 -12.140625 4.9375 -14.828125 L 4.9375 -42.625 C 4.9375 -45.300781 4.742188 -47.328125 4.359375 -48.703125 C 3.984375 -50.085938 3.523438 -51.101562 2.984375 -51.75 C 2.453125 -52.40625 1.992188 -52.941406 1.609375 -53.359375 C 1.222656 -53.785156 1.03125 -54.421875 1.03125 -55.265625 Z M 1.03125 -55.265625 "/></g></g></g><g fill="#303030" fill-opacity="1"><g transform="translate(209.428042, 109.651666)"><g><path d="M 27.234375 0.6875 C 19.566406 0.6875 13.492188 -1.394531 9.015625 -5.5625 C 4.535156 -9.738281 2.296875 -15.546875 2.296875 -22.984375 C 2.296875 -30.484375 4.535156 -36.300781 9.015625 -40.4375 C 13.492188 -44.570312 19.566406 -46.640625 27.234375 -46.640625 C 34.890625 -46.640625 40.957031 -44.570312 45.4375 -40.4375 C 49.914062 -36.300781 52.15625 -30.484375 52.15625 -22.984375 C 52.15625 -15.546875 49.914062 -9.738281 45.4375 -5.5625 C 40.957031 -1.394531 34.890625 0.6875 27.234375 0.6875 Z M 21.25 -22.984375 C 21.25 -19.835938 21.421875 -16.941406 21.765625 -14.296875 C 22.109375 -11.660156 22.722656 -9.578125 23.609375 -8.046875 C 24.492188 -6.515625 25.703125 -5.75 27.234375 -5.75 C 28.835938 -5.75 30.078125 -6.515625 30.953125 -8.046875 C 31.835938 -9.578125 32.429688 -11.660156 32.734375 -14.296875 C 33.046875 -16.941406 33.203125 -19.835938 33.203125 -22.984375 C 33.203125 -26.191406 33.046875 -29.097656 32.734375 -31.703125 C 32.429688 -34.304688 31.835938 -36.375 30.953125 -37.90625 C 30.078125 -39.445312 28.835938 -40.21875 27.234375 -40.21875 C 25.703125 -40.21875 24.492188 -39.445312 23.609375 -37.90625 C 22.722656 -36.375 22.109375 -34.304688 21.765625 -31.703125 C 21.421875 -29.097656 21.25 -26.191406 21.25 -22.984375 Z M 21.25 -22.984375 "/></g></g></g><g fill="#303030" fill-opacity="1"><g transform="translate(262.043207, 109.651666)"><g><path d="M 14.9375 0.6875 C 10.644531 0.6875 7.460938 -0.570312 5.390625 -3.09375 C 3.328125 -5.625 2.296875 -8.648438 2.296875 -12.171875 C 2.296875 -17.304688 4.207031 -21.347656 8.03125 -24.296875 C 11.863281 -27.242188 16.847656 -29.367188 22.984375 -30.671875 C 28.796875 -31.898438 31.703125 -33.816406 31.703125 -36.421875 C 31.703125 -37.410156 31.28125 -38.382812 30.4375 -39.34375 C 29.601562 -40.300781 28.148438 -40.78125 26.078125 -40.78125 C 24.015625 -40.78125 22.332031 -40.222656 21.03125 -39.109375 C 19.726562 -38.003906 18.578125 -36.742188 17.578125 -35.328125 C 16.578125 -33.910156 15.484375 -32.644531 14.296875 -31.53125 C 13.109375 -30.425781 11.519531 -29.875 9.53125 -29.875 C 8.226562 -29.875 7.097656 -30.332031 6.140625 -31.25 C 5.179688 -32.164062 4.703125 -33.273438 4.703125 -34.578125 C 4.703125 -37.179688 5.738281 -39.382812 7.8125 -41.1875 C 9.882812 -42.988281 12.582031 -44.347656 15.90625 -45.265625 C 19.238281 -46.179688 22.859375 -46.640625 26.765625 -46.640625 C 30.984375 -46.640625 34.8125 -45.96875 38.25 -44.625 C 41.695312 -43.289062 44.453125 -41.050781 46.515625 -37.90625 C 48.585938 -34.769531 49.625 -30.484375 49.625 -25.046875 L 49.625 -14.828125 C 49.625 -12.140625 49.816406 -10.101562 50.203125 -8.71875 C 50.585938 -7.34375 51.046875 -6.328125 51.578125 -5.671875 C 52.117188 -5.023438 52.578125 -4.492188 52.953125 -4.078125 C 53.335938 -3.660156 53.53125 -3.03125 53.53125 -2.1875 C 53.53125 -1.03125 53.1875 -0.265625 52.5 0.109375 C 51.8125 0.492188 50.929688 0.6875 49.859375 0.6875 C 48.710938 0.6875 47.445312 0.570312 46.0625 0.34375 C 44.6875 0.113281 43.425781 0 42.28125 0 C 41.050781 0 39.976562 0.0546875 39.0625 0.171875 C 38.144531 0.285156 37.1875 0.421875 36.1875 0.578125 C 34.96875 0.722656 33.878906 0.566406 32.921875 0.109375 C 31.960938 -0.347656 31.40625 -1.1875 31.25 -2.40625 C 31.175781 -3.632812 30.984375 -4.457031 30.671875 -4.875 C 30.367188 -5.300781 29.988281 -5.515625 29.53125 -5.515625 C 28.6875 -5.515625 27.59375 -4.992188 26.25 -3.953125 C 24.90625 -2.921875 23.296875 -1.890625 21.421875 -0.859375 C 19.546875 0.171875 17.382812 0.6875 14.9375 0.6875 Z M 20.109375 -16.890625 C 20.109375 -14.671875 20.660156 -13.082031 21.765625 -12.125 C 22.878906 -11.164062 24.203125 -10.6875 25.734375 -10.6875 C 27.648438 -10.6875 29.101562 -11.507812 30.09375 -13.15625 C 31.09375 -14.800781 31.59375 -16.734375 31.59375 -18.953125 L 31.59375 -24.46875 C 31.59375 -26.539062 30.632812 -27.078125 28.71875 -26.078125 C 27.5 -25.460938 26.21875 -24.789062 24.875 -24.0625 C 23.53125 -23.34375 22.398438 -22.445312 21.484375 -21.375 C 20.566406 -20.300781 20.109375 -18.804688 20.109375 -16.890625 Z M 20.109375 -16.890625 "/></g></g></g><g fill="#303030" fill-opacity="1"><g transform="translate(314.888123, 109.651666)"><g><path d="M 1.15625 -2.1875 C 1.15625 -3.03125 1.34375 -3.660156 1.71875 -4.078125 C 2.101562 -4.492188 2.5625 -5.023438 3.09375 -5.671875 C 3.632812 -6.328125 4.097656 -7.34375 4.484375 -8.71875 C 4.867188 -10.101562 5.0625 -12.140625 5.0625 -14.828125 C 5.0625 -18.347656 5.078125 -20.890625 5.109375 -22.453125 C 5.148438 -24.023438 5.171875 -25.175781 5.171875 -25.90625 C 5.171875 -26.632812 5.171875 -27.457031 5.171875 -28.375 C 5.171875 -30.445312 4.84375 -31.882812 4.1875 -32.6875 C 3.539062 -33.488281 2.890625 -34.117188 2.234375 -34.578125 C 1.585938 -35.035156 1.265625 -35.765625 1.265625 -36.765625 C 1.265625 -37.910156 1.644531 -38.691406 2.40625 -39.109375 C 3.175781 -39.535156 4.269531 -39.898438 5.6875 -40.203125 C 7.101562 -40.515625 8.804688 -41.015625 10.796875 -41.703125 C 13.242188 -42.617188 14.925781 -43.441406 15.84375 -44.171875 C 16.769531 -44.898438 17.460938 -45.492188 17.921875 -45.953125 C 18.378906 -46.410156 19.109375 -46.640625 20.109375 -46.640625 C 21.484375 -46.640625 22.398438 -46.023438 22.859375 -44.796875 C 23.316406 -43.578125 23.546875 -42.125 23.546875 -40.4375 L 23.546875 -39.515625 C 23.546875 -38.441406 23.738281 -37.90625 24.125 -37.90625 C 24.507812 -37.90625 25.125 -38.347656 25.96875 -39.234375 C 26.8125 -40.117188 27.898438 -41.132812 29.234375 -42.28125 C 30.578125 -43.425781 32.1875 -44.4375 34.0625 -45.3125 C 35.9375 -46.195312 38.0625 -46.640625 40.4375 -46.640625 C 44.039062 -46.640625 46.757812 -45.875 48.59375 -44.34375 C 50.4375 -42.8125 51.679688 -40.894531 52.328125 -38.59375 C 52.984375 -36.300781 53.3125 -33.96875 53.3125 -31.59375 L 53.3125 -14.828125 C 53.3125 -12.140625 53.5 -10.101562 53.875 -8.71875 C 54.257812 -7.34375 54.71875 -6.328125 55.25 -5.671875 C 55.789062 -5.023438 56.253906 -4.492188 56.640625 -4.078125 C 57.023438 -3.660156 57.21875 -3.03125 57.21875 -2.1875 C 57.21875 -1.03125 56.890625 -0.265625 56.234375 0.109375 C 55.585938 0.492188 54.726562 0.6875 53.65625 0.6875 C 52.582031 0.6875 51.335938 0.570312 49.921875 0.34375 C 48.503906 0.113281 47.144531 0 45.84375 0 C 44.613281 0 43.554688 0.0546875 42.671875 0.171875 C 41.796875 0.285156 40.859375 0.421875 39.859375 0.578125 C 38.328125 0.722656 37.082031 0.378906 36.125 -0.453125 C 35.175781 -1.296875 34.703125 -2.484375 34.703125 -4.015625 L 34.703125 -22.859375 C 34.703125 -26.535156 34.316406 -29.332031 33.546875 -31.25 C 32.785156 -33.164062 31.40625 -34.125 29.40625 -34.125 C 27.644531 -34.125 26.226562 -33.222656 25.15625 -31.421875 C 24.082031 -29.617188 23.546875 -25.921875 23.546875 -20.328125 L 23.546875 -14.828125 C 23.546875 -12.140625 23.738281 -10.101562 24.125 -8.71875 C 24.507812 -7.34375 24.96875 -6.328125 25.5 -5.671875 C 26.039062 -5.023438 26.5 -4.492188 26.875 -4.078125 C 27.257812 -3.660156 27.453125 -3.03125 27.453125 -2.1875 C 27.453125 -1.03125 27.007812 -0.265625 26.125 0.109375 C 25.25 0.492188 24.160156 0.6875 22.859375 0.6875 C 21.410156 0.6875 19.898438 0.570312 18.328125 0.34375 C 16.753906 0.113281 15.394531 0 14.25 0 C 13.09375 0 11.726562 0.113281 10.15625 0.34375 C 8.59375 0.570312 7.125 0.6875 5.75 0.6875 C 4.445312 0.6875 3.351562 0.492188 2.46875 0.109375 C 1.59375 -0.265625 1.15625 -1.03125 1.15625 -2.1875 Z M 1.15625 -2.1875 "/></g></g></g></svg>